HIERARCHY
ROOT Hips
{
    OFFSET   0.000000   0.000000   0.000000
    CHANNELS 6 Xposition Yposition Zposition Zrotation Xrotation Yrotation
    JOINT Chest
    {
        OFFSET   0.000000   8.007230   0.000000
        CHANNELS 3 Zrotation Xrotation Yrotation
        JOINT Chest2
        {
            OFFSET   0.000000  22.077100   0.000000
            CHANNELS 3 Zrotation Xrotation Yrotation
            JOINT Neck
            {
                OFFSET   0.000000  23.255100   0.000000
                CHANNELS 3 Zrotation Xrotation Yrotation
                JOINT Head
                {
                    OFFSET   0.000000  14.370100   1.956600
                    CHANNELS 3 Zrotation Xrotation Yrotation
                    End Site
                    {
                        OFFSET   0.000000  19.566000   0.000000
                    }
                }
            }
            JOINT LeftCollar
            {
                OFFSET   3.911900  19.017000  -0.467063
                CHANNELS 3 Zrotation Xrotation Yrotation
                JOINT LeftShoulder
                {
                    OFFSET  10.383700   0.000000   0.000000
                    CHANNELS 3 Zrotation Xrotation Yrotation
                    JOINT LeftElbow
                    {
                        OFFSET  26.662100   0.001193   0.000980
                        CHANNELS 3 Zrotation Xrotation Yrotation
                        JOINT LeftWrist
                        {
                            OFFSET  28.869000  -0.000059  -0.000082
                            CHANNELS 3 Zrotation Xrotation Yrotation
                            JOINT LeftFinger0
                            {
                                OFFSET   2.044650  -2.323450   3.252850
                                CHANNELS 3 Zrotation Xrotation Yrotation
                                JOINT LeftFinger01
                                {
                                    OFFSET   3.088130   0.000000   0.000000
                                    CHANNELS 3 Zrotation Xrotation Yrotation
                                    JOINT LeftFinger02
                                    {
                                        OFFSET   2.639460   0.000000   0.000000
                                        CHANNELS 3 Zrotation Xrotation Yrotation
                                        End Site
                                        {
                                            OFFSET   2.582190   0.000000   0.000000
                                        }
                                    }
                                }
                            }
                            JOINT LeftFinger1
                            {
                                OFFSET   8.364480   0.000000   3.252850
                                CHANNELS 3 Zrotation Xrotation Yrotation
                                JOINT LeftFinger11
                                {
                                    OFFSET   4.646930   0.000000   0.000000
                                    CHANNELS 3 Zrotation Xrotation Yrotation
                                    JOINT LeftFinger12
                                    {
                                        OFFSET   2.323470   0.000000   0.000000
                                        CHANNELS 3 Zrotation Xrotation Yrotation
                                        End Site
                                        {
                                            OFFSET   2.273050   0.000000   0.000000
                                        }
                                    }
                                }
                            }
                            JOINT LeftFinger2
                            {
                                OFFSET   8.364490   0.000016   1.078090
                                CHANNELS 3 Zrotation Xrotation Yrotation
                                JOINT LeftFinger21
                                {
                                    OFFSET   5.111610   0.000000   0.000000
                                    CHANNELS 3 Zrotation Xrotation Yrotation
                                    JOINT LeftFinger22
                                    {
                                        OFFSET   2.788150   0.000016   0.000000
                                        CHANNELS 3 Zrotation Xrotation Yrotation
                                        End Site
                                        {
                                            OFFSET   2.727660   0.000000   0.000000
                                        }
                                    }
                                }
                            }
                            JOINT LeftFinger3
                            {
                                OFFSET   7.899780   0.000015  -1.078090
                                CHANNELS 3 Zrotation Xrotation Yrotation
                                JOINT LeftFinger31
                                {
                                    OFFSET   4.646930   0.000000   0.000000
                                    CHANNELS 3 Zrotation Xrotation Yrotation
                                    JOINT LeftFinger32
                                    {
                                        OFFSET   2.323470   0.000000   0.000000
                                        CHANNELS 3 Zrotation Xrotation Yrotation
                                        End Site
                                        {
                                            OFFSET   2.273050   0.000000   0.000000
                                        }
                                    }
                                }
                            }
                            JOINT LeftFinger4
                            {
                                OFFSET   7.435090   0.000000  -3.252850
                                CHANNELS 3 Zrotation Xrotation Yrotation
                                JOINT LeftFinger41
                                {
                                    OFFSET   3.717550   0.000000   0.000000
                                    CHANNELS 3 Zrotation Xrotation Yrotation
                                    JOINT LeftFinger42
                                    {
                                        OFFSET   1.858770   0.000000   0.000000
                                        CHANNELS 3 Zrotation Xrotation Yrotation
                                        End Site
                                        {
                                            OFFSET   1.818440   0.000000   0.000000
                                        }
                                    }
                                }
                            }
                        }
                    }
                }
            }
            JOINT RightCollar
            {
                OFFSET  -3.911910  19.017000  -0.467062
                CHANNELS 3 Zrotation Xrotation Yrotation
                JOINT RightShoulder
                {
                    OFFSET -10.383700   0.000014   0.000000
                    CHANNELS 3 Zrotation Xrotation Yrotation
                    JOINT RightElbow
                    {
                        OFFSET -26.662100   0.001225   0.001091
                        CHANNELS 3 Zrotation Xrotation Yrotation
                        JOINT RightWrist
                        {
                            OFFSET -28.869000  -0.000020  -0.000085
                            CHANNELS 3 Zrotation Xrotation Yrotation
                            JOINT RightFinger0
                            {
                                OFFSET  -2.044650  -2.323490   3.252850
                                CHANNELS 3 Zrotation Xrotation Yrotation
                                JOINT RightFinger01
                                {
                                    OFFSET  -3.088130   0.000000   0.000000
                                    CHANNELS 3 Zrotation Xrotation Yrotation
                                    JOINT RightFinger02
                                    {
                                        OFFSET  -2.639460   0.000000   0.000000
                                        CHANNELS 3 Zrotation Xrotation Yrotation
                                        End Site
                                        {
                                            OFFSET  -2.582190   0.000000   0.000000
                                        }
                                    }
                                }
                            }
                            JOINT RightFinger1
                            {
                                OFFSET  -8.364480   0.000000   3.252850
                                CHANNELS 3 Zrotation Xrotation Yrotation
                                JOINT RightFinger11
                                {
                                    OFFSET  -4.646930   0.000000   0.000000
                                    CHANNELS 3 Zrotation Xrotation Yrotation
                                    JOINT RightFinger12
                                    {
                                        OFFSET  -2.323470   0.000000   0.000000
                                        CHANNELS 3 Zrotation Xrotation Yrotation
                                        End Site
                                        {
                                            OFFSET  -2.273050   0.000000   0.000000
                                        }
                                    }
                                }
                            }
                            JOINT RightFinger2
                            {
                                OFFSET  -8.364480   0.000000   1.078090
                                CHANNELS 3 Zrotation Xrotation Yrotation
                                JOINT RightFinger21
                                {
                                    OFFSET  -5.111620   0.000000   0.000000
                                    CHANNELS 3 Zrotation Xrotation Yrotation
                                    JOINT RightFinger22
                                    {
                                        OFFSET  -2.788160   0.000000   0.000000
                                        CHANNELS 3 Zrotation Xrotation Yrotation
                                        End Site
                                        {
                                            OFFSET  -2.727660   0.000000   0.000000
                                        }
                                    }
                                }
                            }
                            JOINT RightFinger3
                            {
                                OFFSET  -7.899780   0.000000  -1.078090
                                CHANNELS 3 Zrotation Xrotation Yrotation
                                JOINT RightFinger31
                                {
                                    OFFSET  -4.646930   0.000000   0.000000
                                    CHANNELS 3 Zrotation Xrotation Yrotation
                                    JOINT RightFinger32
                                    {
                                        OFFSET  -2.323470   0.000000   0.000000
                                        CHANNELS 3 Zrotation Xrotation Yrotation
                                        End Site
                                        {
                                            OFFSET  -2.273050   0.000000   0.000000
                                        }
                                    }
                                }
                            }
                            JOINT RightFinger4
                            {
                                OFFSET  -7.435090   0.000000  -3.252850
                                CHANNELS 3 Zrotation Xrotation Yrotation
                                JOINT RightFinger41
                                {
                                    OFFSET  -3.717550   0.000000   0.000000
                                    CHANNELS 3 Zrotation Xrotation Yrotation
                                    JOINT RightFinger42
                                    {
                                        OFFSET  -1.858760   0.000000   0.000000
                                        CHANNELS 3 Zrotation Xrotation Yrotation
                                        End Site
                                        {
                                            OFFSET  -1.818440   0.000000   0.000000
                                        }
                                    }
                                }
                            }
                        }
                    }
                }
            }
        }
    }
    JOINT LeftHip
    {
        OFFSET   9.783030   0.000000   0.000000
        CHANNELS 3 Zrotation Xrotation Yrotation
        JOINT LeftKnee
        {
            OFFSET   0.000063 -41.789100   0.000608
            CHANNELS 3 Zrotation Xrotation Yrotation
            JOINT LeftAnkle
            {
                OFFSET   0.000048 -41.133200  -0.000184
                CHANNELS 3 Zrotation Xrotation Yrotation
                JOINT LeftToe
                {
                    OFFSET   0.000000  -6.358960  14.674500
                    CHANNELS 3 Zrotation Xrotation Yrotation
                    End Site
                    {
                        OFFSET   0.000000   0.000000   3.913200
                    }
                }
            }
        }
    }
    JOINT RightHip
    {
        OFFSET  -9.783030   0.000000   0.000000
        CHANNELS 3 Zrotation Xrotation Yrotation
        JOINT RightKnee
        {
            OFFSET   0.000071 -41.789100   0.001239
            CHANNELS 3 Zrotation Xrotation Yrotation
            JOINT RightAnkle
            {
                OFFSET   0.000037 -41.133200  -0.000166
                CHANNELS 3 Zrotation Xrotation Yrotation
                JOINT RightToe
                {
                    OFFSET   0.000000  -6.358960  14.674500
                    CHANNELS 3 Zrotation Xrotation Yrotation
                    End Site
                    {
                        OFFSET   0.000000   0.000000   3.913200
                    }
                }
            }
        }
    }
}
MOTION
Frames: 5
Frame Time:   0.016667
 -0.725140  89.484700   2.142220  -2.816520 -10.063700 -13.445500   4.316580   8.901520  -4.412070   9.490320  17.410100  -9.669600   5.037170   2.507050  -0.220764   8.322480   4.957040 -13.718600  -6.740330   2.828540  10.714800 -76.515800  20.848200 -10.989700  -2.812610  -0.072656 -17.952100  10.129700   1.169760  -3.671360  39.630000  33.750600 -49.883000 -33.377700   0.157676   0.103909 -11.688400   0.116510   0.016226 -33.823000  -1.293810   1.930140 -27.691100   0.062962  -0.029438 -19.383800   0.049506   0.016441 -28.999200  -1.488270   6.784770 -43.428500   0.007803   0.113411 -28.923400  -0.033735   0.067780 -28.186300  -3.683830   6.833470 -35.152900   0.028038   0.200269 -23.411700  -0.046164   0.126255 -32.741100  -5.648080   8.702210 -49.756700  -0.028695   0.159872 -33.137900  -0.077291   0.074777   6.393740   3.314680   9.572190  52.379100 -21.954000  16.172000   1.623980  -2.138180   4.662870 -34.033700  20.771300  17.143000 -43.540600  27.856000  63.008400  18.614000  -0.000525  -0.000860   4.307020   0.000963   0.001567   0.010558  -0.003052  -0.096670   0.008734  -0.007349  -0.002327   0.006116  -0.008158  -0.001275   0.991034   0.003014  -0.103180   0.991138   0.003279  -0.002661   0.660070  -0.009151  -0.001844  -0.379631   0.026223  -2.472740  -0.000058   0.005868  -0.001713  -0.053458   0.010295  -0.001180   7.154140  -0.302561  -2.453650  10.742100   0.004319  -0.002096   7.154290   0.000844  -0.001728   1.853190  14.282800   4.843500  -0.157123   2.023400  23.876000  -3.160100  -5.582710   2.319310  -0.000000   0.000000   0.000000  -1.427140  12.402000  -2.748620   1.227460   0.003963  -8.367170   0.407209  -1.336720   7.883090  -0.000000   0.000000   0.000000
 -0.773938  89.482300   2.164440  -2.810670 -10.050100 -13.472000   4.291680   8.880830  -4.411500   9.437060  17.371000  -9.664310   4.808520   2.432120  -0.204476   7.940460   4.822800 -11.271400  -6.785810   2.817510  10.715500 -76.508800  20.839400 -10.944200  -2.801980  -0.096962 -17.825200  10.142700   1.197420  -3.671120  39.587800  33.675300 -49.834100 -33.377200   0.127313   0.083926 -11.688300   0.096104   0.010010 -33.829500  -1.284300   1.915390 -27.695500   0.067416  -0.031931 -19.390300   0.053566   0.017874 -28.855200  -2.770990   6.790120 -43.441700   0.003848   0.071873 -28.932200  -0.023936   0.042497 -28.186400  -3.684010   6.833190 -35.157500   0.013415   0.128743 -23.414800  -0.031773   0.080131 -32.747000  -5.640870   8.691100 -49.763900  -0.026580   0.122729 -33.142700  -0.062900   0.054373   6.317120   3.284770   9.556360  52.250900 -22.136200  15.608100   1.583680  -2.442050   4.769750 -34.397600  20.740400  17.105500 -43.500100  28.138800  63.106900  18.969800  -0.000528  -0.000933   4.484940   0.000987   0.001565   0.211201  -0.004771  -0.205385   0.176287  -0.007454  -0.002330   0.125343  -0.008263  -0.001328   1.202500   0.001019  -0.159612   1.202420   0.003724  -0.002668   0.800779  -0.009264  -0.001850  -0.081002   0.016791  -2.684640   0.067021   0.006164  -0.001723   0.014593   0.011138  -0.001177   7.204700  -0.330021  -2.663970  10.820100   0.004496  -0.002294   7.206190   0.000889  -0.001877   1.866850  14.275400   4.802850  -0.148108   2.054050  23.926500  -3.190150  -5.593470   2.333870   0.000000   0.000000   0.000000  -1.418220  12.390700  -2.771520   1.244290   0.047640  -8.373920   0.401350  -1.392070   7.933730   0.000000   0.000000  -0.000000
 -0.825966  89.478900   2.180730  -2.805420 -10.036100 -13.486900   4.265250   8.859600  -4.409020   9.380410  17.331500  -9.650320   4.582450   2.344460  -0.187840   7.563450   4.661780  -8.916070  -6.827130   2.796410  10.716100 -76.517100  20.808400 -10.886800  -2.790600  -0.113819 -17.709800  10.154800   1.213520  -3.670860  39.552600  33.603500 -49.794700 -33.374500   0.096949   0.063943 -11.687300   0.075698  -0.002026 -33.834900  -1.264180   1.885120 -27.700100   0.072218  -0.034967 -19.395500   0.059194   0.018078 -28.765400  -3.601940   6.795280 -43.455900   0.000442   0.015640 -28.941600  -0.005092   0.009095 -28.186600  -3.684190   6.832850 -35.166900  -0.001590   0.020098 -23.421200  -0.008413   0.010751 -32.758800  -5.627920   8.665920 -49.778400  -0.019407   0.058872 -33.152400  -0.035223   0.021793   6.247890   3.247280   9.540460  52.194500 -22.305300  15.056700   1.551710  -2.831450   4.916510 -34.877900  20.634100  17.088300 -43.378700  28.558700  63.356200  19.612600  -0.000532  -0.001010   4.806310   0.001013   0.001562   0.801798  -0.006262  -0.314099   0.655946  -0.007558  -0.002337   0.459141  -0.008366  -0.001703   1.777880  -0.002196  -0.222464   1.777710   0.004221  -0.002689   1.183940  -0.009376  -0.001870   0.424881  -0.011148  -3.121750   0.390401   0.007085  -0.001749   0.260019   0.011908  -0.001175   7.396850  -0.394151  -3.095780  11.113700   0.004904  -0.002925   7.401750   0.000922  -0.002351   1.885850  14.267300   4.753060  -0.140304   2.084930  23.975100  -3.220500  -5.604770   2.347940  -0.000000   0.000000   0.000000  -1.409920  12.379500  -2.791500   1.263040   0.091312  -8.395010   0.397365  -1.446690   7.985530  -0.000000   0.000000   0.000000
 -0.880251  89.474400   2.191110  -2.796160 -10.023500 -13.481100   4.236570   8.836320  -4.401530   9.317890  17.288400  -9.626860   4.352750   2.249370  -0.171142   7.181620   4.480400  -6.670900  -6.868600   2.771420  10.731900 -76.548000  20.745700 -10.817500  -2.777010  -0.102607 -17.624600  10.168200   1.220780  -3.666760  39.529800  33.541800 -49.761800 -33.359000   0.107229   0.070652 -11.679700   0.107453  -0.028474 -33.837300  -1.232550   1.837830 -27.703900   0.111644  -0.133080 -19.396800   0.133136  -0.027776 -28.751500  -3.771640   6.796110 -43.465400  -0.001949  -0.057603 -28.947900   0.021283  -0.033689 -28.186900  -3.684370   6.832390 -35.177200  -0.005579  -0.044093 -23.428000   0.013075  -0.027514 -32.775300  -5.602060   8.621830 -49.796500  -0.001286   0.000804 -33.164500  -0.002292  -0.001253   6.187930   3.201540   9.541040  52.217400 -22.580600  14.525600   1.497520  -3.158360   5.113040 -35.521000  20.419800  17.153300 -43.132500  29.080400  63.965200  20.422500  -0.000540  -0.001049   5.211230   0.001048   0.001549   1.750950  -0.007024  -0.263963   1.431340  -0.007660  -0.007049   1.001930  -0.008468  -0.006272   2.716760  -0.005081  -0.229952   2.716590   0.004744  -0.008500   1.809240  -0.009486  -0.005812   1.045590  -0.040673  -3.647400   1.006490   0.013432  -0.009257   0.673678   0.012724  -0.006472   7.734800  -0.474962  -3.610410  11.630200   0.006615  -0.010275   7.745690   0.000938  -0.007634   1.908850  14.260000   4.690580  -0.135166   2.114240  24.022300  -3.251370  -5.615990   2.354260  -0.000000   0.000000  -0.000000  -1.403670  12.385300  -2.821500   1.290460   0.084623  -8.445630   0.391659  -1.471470   8.063710  -0.000000   0.000000  -0.000000
 -0.936968  89.469200   2.194900  -2.781490 -10.009600 -13.453600   4.204310   8.808470  -4.387360   9.247060  17.237000  -9.590940   4.121630   2.147980  -0.154643   6.799110   4.283990  -4.563590  -6.907990   2.747540  10.755500 -76.587900  20.669200 -10.738700  -2.763900  -0.082159 -17.564500  10.179600   1.221820  -3.660820  39.516200  33.496000 -49.735000 -33.338200   0.117508   0.077362 -11.669200   0.140019  -0.054273 -33.839600  -1.201530   1.791470 -27.706700   0.144127  -0.263330 -19.396800   0.199813  -0.098835 -28.751400  -3.810200   6.795890 -43.472200  -0.009854  -0.131606 -28.952400   0.038615  -0.079204 -28.187600  -3.684550   6.831870 -35.191400  -0.012211  -0.096678 -23.437500   0.025593  -0.059784 -32.790600  -5.584210   8.589440 -49.815600   0.011776  -0.053845 -33.177200   0.029014  -0.022618   6.151310   3.173470   9.542240  52.332800 -22.942500  14.024400   1.424850  -3.510790   5.372070 -36.257900  20.165100  17.347700 -42.755000  29.723500  64.765100  21.456000  -0.000545  -0.001167   5.727980   0.001084   0.001534   3.130240  -0.007260  -0.081748   2.558420  -0.007761  -0.014636   1.790900  -0.008569  -0.012427   4.032670  -0.006746  -0.231022   4.032860   0.005246  -0.018247   2.685880  -0.009595  -0.012441   2.040600  -0.121701  -4.274500   2.050360   0.021034  -0.021199   1.365550   0.013180  -0.014890   8.284440  -0.595701  -4.225530  12.467700   0.008945  -0.022609   8.303470   0.000942  -0.016312   1.934260  14.245900   4.626100  -0.130510   2.147520  24.053500  -3.282790  -5.627280   2.356020  -0.000000   0.000000   0.000000  -1.395940  12.391000  -2.858360   1.321170   0.077934  -8.500930   0.383573  -1.492710   8.121640   0.000000   0.000000   0.000000
